<svg xmlns="http://www.w3.org/2000/svg" viewBox="0 0 64 64">
  <rect width="64" height="64" fill="black"/>
  <!-- Roof -->
  <path d="M8 32 L32 12 L56 32" stroke="white" stroke-width="3" fill="none" stroke-linecap="round" stroke-linejoin="round"/>
  <!-- Crown on right slope -->
  <path d="M42 24 L44 16 L48 22 L52 16 L54 26" fill="white" stroke="white" stroke-width="1" stroke-linejoin="round"/>
  <!-- Center Sparkle -->
  <path d="M32 18 L34 24 L40 26 L34 28 L32 34 L30 28 L24 26 L30 24 Z" fill="white"/>
  <!-- Bottom Sparkles -->
  <path d="M16 48 L18 52 L22 54 L18 56 L16 60 L14 56 L10 54 L14 52 Z" fill="white"/>
  <path d="M48 48 L50 52 L54 54 L50 56 L48 60 L46 56 L42 54 L46 52 Z" fill="white"/>
</svg>
